<svg width="87" height="74" viewBox="0 0 87 74" fill="none" xmlns="http://www.w3.org/2000/svg">
<path d="M78.3 10.0638H65.3065L58.8642 0.746397C58.7056 0.517219 58.4908 0.329235 58.239 0.199055C57.9871 0.0688757 57.7058 0.000510091 57.42 0H29.58C29.2942 0.000510091 29.0129 0.0688757 28.761 0.199055C28.5092 0.329235 28.2944 0.517219 28.1358 0.746397L21.6847 10.0638H8.7C6.39262 10.0638 4.17974 10.9474 2.54817 12.5201C0.916604 14.0929 0 16.226 0 18.4503V65.4146C0 67.6388 0.916604 69.772 2.54817 71.3447C4.17974 72.9175 6.39262 73.8011 8.7 73.8011H78.3C80.6074 73.8011 82.8203 72.9175 84.4518 71.3447C86.0834 69.772 87 67.6388 87 65.4146V18.4503C87 16.226 86.0834 14.0929 84.4518 12.5201C82.8203 10.9474 80.6074 10.0638 78.3 10.0638ZM83.52 65.4146C83.52 66.7491 82.97 68.029 81.9911 68.9727C81.0122 69.9163 79.6844 70.4465 78.3 70.4465H8.7C7.31557 70.4465 5.98784 69.9163 5.0089 68.9727C4.02996 68.029 3.48 66.7491 3.48 65.4146V18.4503C3.48 17.1157 4.02996 15.8358 5.0089 14.8922C5.98784 13.9485 7.31557 13.4184 8.7 13.4184H22.62C22.9065 13.4186 23.1887 13.3505 23.4414 13.2203C23.6941 13.0901 23.9095 12.9017 24.0686 12.672L30.5065 3.35459H56.4848L62.9315 12.672C63.0905 12.9017 63.3059 13.0901 63.5586 13.2203C63.8113 13.3505 64.0935 13.4186 64.38 13.4184H78.3C79.6844 13.4184 81.0122 13.9485 81.9911 14.8922C82.97 15.8358 83.52 17.1157 83.52 18.4503V65.4146ZM43.5 23.4822C40.0586 23.4822 36.6945 24.4659 33.8331 26.3089C30.9717 28.152 28.7415 30.7715 27.4245 33.8364C26.1075 36.9013 25.763 40.2737 26.4343 43.5274C27.1057 46.781 28.7629 49.7697 31.1963 52.1154C33.6298 54.4612 36.7302 56.0586 40.1054 56.7058C43.4807 57.353 46.9793 57.0208 50.1587 55.7513C53.3381 54.4818 56.0556 52.332 57.9676 49.5737C59.8795 46.8154 60.9 43.5725 60.9 40.2551C60.9 35.8067 59.0668 31.5404 55.8037 28.3949C52.5405 25.2493 48.1148 23.4822 43.5 23.4822ZM43.5 53.6735C40.7469 53.6735 38.0556 52.8865 35.7665 51.4121C33.4773 49.9377 31.6932 47.842 30.6396 45.3901C29.586 42.9382 29.3104 40.2403 29.8475 37.6373C30.3846 35.0344 31.7103 32.6435 33.6571 30.7669C35.6038 28.8903 38.0841 27.6123 40.7843 27.0946C43.4846 26.5768 46.2834 26.8426 48.827 27.8582C51.3705 28.8738 53.5445 30.5936 55.0741 32.8003C56.6036 35.0069 57.42 37.6012 57.42 40.2551C57.42 43.8139 55.9534 47.2269 53.3429 49.7434C50.7324 52.2598 47.1918 53.6735 43.5 53.6735Z" fill="black"/>
</svg>
