<svg width="29" height="12" viewBox="0 0 29 12" fill="none" xmlns="http://www.w3.org/2000/svg">
<path d="M28.2247 6.48423C28.6529 6.48423 29 6.13714 29 5.70897C29 5.28081 28.6529 4.93371 28.2247 4.93371V6.48423ZM0.227129 5.16078C-0.0756283 5.46354 -0.0756283 5.95441 0.227129 6.25716L5.16086 11.1909C5.46362 11.4937 5.95449 11.4937 6.25725 11.1909C6.56001 10.8881 6.56001 10.3973 6.25725 10.0945L1.87171 5.70897L6.25725 1.32343C6.56001 1.02067 6.56001 0.529805 6.25725 0.227047C5.95449 -0.0757121 5.46362 -0.0757121 5.16086 0.227047L0.227129 5.16078ZM28.2247 4.93371L0.775323 4.93371V6.48423L28.2247 6.48423V4.93371Z" fill="black"/>
</svg>
