<svg width="16" height="15" viewBox="0 0 16 15" fill="none" xmlns="http://www.w3.org/2000/svg">
<path d="M8.26105 14.2857H1.68421C0.749474 14.2857 0 13.65 0 12.8571V1.42857C0 1.04969 0.177443 0.686328 0.493294 0.418419C0.809144 0.15051 1.23753 0 1.68421 0H8.42105L13.4737 4.28571V7.92143C13.1958 7.88571 12.9179 7.85714 12.6316 7.85714C12.3453 7.85714 12.0674 7.88571 11.7895 7.92143V5H7.57895V1.42857H1.68421V12.8571H7.65474C7.75579 13.3714 7.96632 13.85 8.26105 14.2857ZM16 11.4286H13.4737V9.28571H11.7895V11.4286H9.26316V12.8571H11.7895V15H13.4737V12.8571H16V11.4286Z" fill="black"/>
</svg>
