<svg width="20" height="15" viewBox="0 0 20 15" fill="none" xmlns="http://www.w3.org/2000/svg">
<path d="M5.676 4.6875H4C3.46957 4.6875 2.96086 4.88504 2.58579 5.23667C2.21071 5.58831 2 6.06522 2 6.5625V11.25C2 11.7473 2.21071 12.2242 2.58579 12.5758C2.96086 12.9275 3.46957 13.125 4 13.125H16C16.5304 13.125 17.0391 12.9275 17.4142 12.5758C17.7893 12.2242 18 11.7473 18 11.25V6.5625C18 6.06522 17.7893 5.58831 17.4142 5.23667C17.0391 4.88504 16.5304 4.6875 16 4.6875H14.324L13.937 3.28031C13.8256 2.87809 13.575 2.52188 13.2245 2.26756C12.8739 2.01323 12.4433 1.87516 12 1.875H8C7.55665 1.87484 7.12582 2.01279 6.7752 2.26717C6.42458 2.52154 6.17406 2.87793 6.063 3.28031L5.676 4.6875ZM4.126 2.8125C4.57 1.19531 6.136 0 8 0H12C12.8869 0.000110576 13.7486 0.276398 14.4498 0.785465C15.151 1.29453 15.6519 2.00754 15.874 2.8125H16C17.0609 2.8125 18.0783 3.20759 18.8284 3.91085C19.5786 4.61411 20 5.56794 20 6.5625V11.25C20 12.2446 19.5786 13.1984 18.8284 13.9017C18.0783 14.6049 17.0609 15 16 15H4C2.93913 15 1.92172 14.6049 1.17157 13.9017C0.421427 13.1984 0 12.2446 0 11.25V6.5625C0 5.56794 0.421427 4.61411 1.17157 3.91085C1.92172 3.20759 2.93913 2.8125 4 2.8125H4.126ZM10 12.1875C8.93913 12.1875 7.92172 11.7924 7.17157 11.0892C6.42143 10.3859 6 9.43206 6 8.4375C6 7.44294 6.42143 6.48911 7.17157 5.78585C7.92172 5.08259 8.93913 4.6875 10 4.6875C11.0609 4.6875 12.0783 5.08259 12.8284 5.78585C13.5786 6.48911 14 7.44294 14 8.4375C14 9.43206 13.5786 10.3859 12.8284 11.0892C12.0783 11.7924 11.0609 12.1875 10 12.1875ZM10 10.3125C10.5304 10.3125 11.0391 10.115 11.4142 9.76332C11.7893 9.41169 12 8.93478 12 8.4375C12 7.94022 11.7893 7.46331 11.4142 7.11167C11.0391 6.76004 10.5304 6.5625 10 6.5625C9.46957 6.5625 8.96086 6.76004 8.58579 7.11167C8.21071 7.46331 8 7.94022 8 8.4375C8 8.93478 8.21071 9.41169 8.58579 9.76332C8.96086 10.115 9.46957 10.3125 10 10.3125ZM16 7.5C16.2652 7.5 16.5196 7.40123 16.7071 7.22541C16.8946 7.0496 17 6.81114 17 6.5625C17 6.31386 16.8946 6.0754 16.7071 5.89959C16.5196 5.72377 16.2652 5.625 16 5.625C15.7348 5.625 15.4804 5.72377 15.2929 5.89959C15.1054 6.0754 15 6.31386 15 6.5625C15 6.81114 15.1054 7.0496 15.2929 7.22541C15.4804 7.40123 15.7348 7.5 16 7.5Z" fill="black"/>
</svg>
