<svg width="20" height="20" viewBox="0 0 20 20" fill="none" xmlns="http://www.w3.org/2000/svg">
<g clip-path="url(#clip0_1_87)">
<path d="M9.5 17.0001C9.63261 17.0001 9.75979 17.0527 9.85356 17.1465C9.94732 17.2403 10 17.3675 10 17.5001C10 17.6327 9.94732 17.7598 9.85356 17.8536C9.75979 17.9474 9.63261 18.0001 9.5 18.0001C9.36739 18.0001 9.24022 17.9474 9.14645 17.8536C9.05268 17.7598 9 17.6327 9 17.5001C9 17.3675 9.05268 17.2403 9.14645 17.1465C9.24022 17.0527 9.36739 17.0001 9.5 17.0001ZM12.5 17.0001C12.6326 17.0001 12.7598 17.0527 12.8536 17.1465C12.9473 17.2403 13 17.3675 13 17.5001C13 17.6327 12.9473 17.7598 12.8536 17.8536C12.7598 17.9474 12.6326 18.0001 12.5 18.0001C12.3674 18.0001 12.2402 17.9474 12.1464 17.8536C12.0527 17.7598 12 17.6327 12 17.5001C12 17.3675 12.0527 17.2403 12.1464 17.1465C12.2402 17.0527 12.3674 17.0001 12.5 17.0001ZM8 16.0001C8.13261 16.0001 8.25979 16.0527 8.35356 16.1465C8.44732 16.2403 8.5 16.3675 8.5 16.5001C8.5 16.6327 8.44732 16.7598 8.35356 16.8536C8.25979 16.9474 8.13261 17.0001 8 17.0001C7.86739 17.0001 7.74022 16.9474 7.64645 16.8536C7.55268 16.7598 7.5 16.6327 7.5 16.5001C7.5 16.3675 7.55268 16.2403 7.64645 16.1465C7.74022 16.0527 7.86739 16.0001 8 16.0001ZM11 16.0001C11.1326 16.0001 11.2598 16.0527 11.3536 16.1465C11.4473 16.2403 11.5 16.3675 11.5 16.5001C11.5 16.6327 11.4473 16.7598 11.3536 16.8536C11.2598 16.9474 11.1326 17.0001 11 17.0001C10.8674 17.0001 10.7402 16.9474 10.6464 16.8536C10.5527 16.7598 10.5 16.6327 10.5 16.5001C10.5 16.3675 10.5527 16.2403 10.6464 16.1465C10.7402 16.0527 10.8674 16.0001 11 16.0001ZM14 16.0001C14.1326 16.0001 14.2598 16.0527 14.3536 16.1465C14.4473 16.2403 14.5 16.3675 14.5 16.5001C14.5 16.6327 14.4473 16.7598 14.3536 16.8536C14.2598 16.9474 14.1326 17.0001 14 17.0001C13.8674 17.0001 13.7402 16.9474 13.6464 16.8536C13.5527 16.7598 13.5 16.6327 13.5 16.5001C13.5 16.3675 13.5527 16.2403 13.6464 16.1465C13.7402 16.0527 13.8674 16.0001 14 16.0001ZM11 6.00006C13.464 6.00006 14.863 7.57306 15.066 9.47406H15.128C16.714 9.47406 18 10.7111 18 12.2371C18 13.7631 16.714 15.0001 15.128 15.0001H6.872C5.286 15.0001 4 13.7631 4 12.2371C4 10.7111 5.286 9.47406 6.872 9.47406H6.934C7.138 7.56006 8.535 6.00006 11 6.00006ZM3.803 8.70006C3.84144 8.81093 3.83967 8.93178 3.79799 9.04147C3.7563 9.15116 3.67737 9.2427 3.575 9.30006L3.493 9.33606L2.692 9.61206C2.57379 9.65342 2.44437 9.64892 2.32932 9.59944C2.21427 9.54997 2.12198 9.45912 2.0707 9.34486C2.01942 9.23061 2.01288 9.10127 2.05237 8.98243C2.09187 8.86358 2.17453 8.76389 2.284 8.70306L2.366 8.66706L3.168 8.39106C3.29332 8.34805 3.43058 8.35655 3.54964 8.41467C3.6687 8.4728 3.75983 8.5758 3.803 8.70106V8.70006ZM8.92 4.50006C9.252 4.66206 9.545 4.87306 9.793 5.12006C8.031 5.48406 6.763 6.65306 6.25 8.27606L6.185 8.50006L6.139 8.68706L5.973 8.71706C5.52938 8.8084 5.10591 8.97914 4.723 9.22106C4.33648 8.61897 4.15742 7.90702 4.21313 7.19372C4.26883 6.48041 4.55624 5.80488 5.03155 5.27011C5.50686 4.73533 6.14399 4.37063 6.84583 4.23161C7.54767 4.09258 8.27572 4.18686 8.919 4.50006H8.92ZM2.917 4.67006L3 4.70206L3.762 5.07306C3.87434 5.12767 3.96216 5.22234 4.0082 5.33845C4.05424 5.45456 4.05515 5.5837 4.01076 5.70045C3.96636 5.81719 3.87988 5.9131 3.76833 5.96929C3.65678 6.02548 3.52824 6.03788 3.408 6.00406L3.323 5.97206L2.562 5.60106C2.44967 5.54645 2.36184 5.45178 2.3158 5.33567C2.26977 5.21956 2.26885 5.09042 2.31325 4.97367C2.35764 4.85692 2.44412 4.76102 2.55567 4.70483C2.66722 4.64864 2.79576 4.63623 2.916 4.67006H2.917ZM9.99 2.29506C10.0953 2.34643 10.1792 2.43314 10.2271 2.54005C10.275 2.64697 10.2838 2.7673 10.252 2.88006L10.22 2.96406L9.849 3.72606C9.79439 3.83839 9.69972 3.92622 9.58361 3.97226C9.4675 4.01829 9.33836 4.01921 9.22161 3.97481C9.10487 3.93042 9.00896 3.84394 8.95277 3.73239C8.89658 3.62084 8.88418 3.4923 8.918 3.37206L8.95 3.28706L9.321 2.52506C9.3498 2.46588 9.39 2.41297 9.43929 2.36937C9.48858 2.32576 9.546 2.29231 9.60825 2.27094C9.67049 2.24958 9.73635 2.24071 9.80203 2.24484C9.86771 2.24898 9.93193 2.26605 9.991 2.29506H9.99ZM6.2 2.26306L6.237 2.34506L6.513 3.14706C6.55357 3.26511 6.54852 3.39408 6.49883 3.50859C6.44914 3.62311 6.35841 3.7149 6.24447 3.76591C6.13054 3.81692 6.00164 3.82347 5.88313 3.78427C5.76461 3.74507 5.66504 3.66295 5.604 3.55406L5.567 3.47206L5.292 2.67106C5.25207 2.55328 5.25746 2.42485 5.30712 2.31083C5.35678 2.19681 5.44715 2.1054 5.56059 2.05442C5.67403 2.00345 5.80239 1.99658 5.92062 2.03516C6.03885 2.07374 6.13846 2.15499 6.2 2.26306Z" fill="black"/>
</g>
<defs>
<clipPath id="clip0_1_87">
<rect width="20" height="20" fill="white"/>
</clipPath>
</defs>
</svg>
