<svg width="18" height="21" viewBox="0 0 18 21" fill="none" xmlns="http://www.w3.org/2000/svg">
<path d="M2.68069 7.31271C2.29048 4.31792 4.62221 1.66267 7.64231 1.66267C10.6624 1.66267 12.9941 4.31792 12.6039 7.31271L12.5444 7.76932C12.461 8.40999 12.5405 9.06136 12.7757 9.66311L14.4393 13.9189C14.7626 14.7461 14.1525 15.6396 13.2643 15.6396H2.02027C1.13206 15.6396 0.522 14.7461 0.845363 13.9189L2.50889 9.66311C2.7441 9.06136 2.82366 8.40999 2.74018 7.76932L2.68069 7.31271Z" stroke="#3B4657" stroke-width="1.5"/>
<ellipse cx="7.64231" cy="18.8169" rx="1.51378" ry="1.45226" fill="#3B4657"/>
<path d="M0.803208 1.68957L16.1256 16.4168" stroke="#3B4657" stroke-width="1.5" stroke-linecap="round"/>
<path d="M1.93429 0.741028L17.2276 15.4128" stroke="#EBEBEB" stroke-width="1.5" stroke-linecap="round"/>
</svg>
