<svg width="96" height="100" viewBox="0 0 96 100" fill="none" xmlns="http://www.w3.org/2000/svg">
<g filter="url(#filter0_f_1_353)">
<ellipse cx="48" cy="49.633" rx="32.4717" ry="34.1047" transform="rotate(-0.02623 48 49.633)" fill="#21262A" fill-opacity="0.2"/>
</g>
<ellipse cx="47.9962" cy="40.6581" rx="36.0796" ry="35.8997" transform="rotate(-0.02623 47.9962 40.6581)" fill="white"/>
<path d="M43.9185 56.5092L43.2324 58.7039C34.3946 57.9432 29.2272 52.0791 29.2271 46.3672L29.2271 44.8151C29.2271 43.5801 29.7314 42.3958 30.6292 41.5225C31.527 40.6493 32.7448 40.1588 34.0145 40.1588L48.5046 40.1591C47.2599 41.0127 46.1652 42.0619 45.2747 43.2633L34.0145 43.2631C33.5913 43.263 33.1854 43.4266 32.8861 43.7176C32.5869 44.0087 32.4187 44.4035 32.4187 44.8152L32.4188 46.3673C32.4188 50.5208 36.3798 55.0128 43.5387 55.6121C43.6536 55.9163 43.7813 56.2143 43.9185 56.5092ZM45.1849 19.9812C47.5127 19.9813 49.7452 20.8807 51.3913 22.4817C53.0373 24.0827 53.9621 26.2541 53.9621 28.5181C53.9622 30.7822 53.0375 32.9536 51.3915 34.5545C49.7455 36.1554 47.5131 37.0548 45.1852 37.0547C42.8574 37.0547 40.6249 36.1552 38.9789 34.5542C37.3328 32.9533 36.408 30.7819 36.408 28.5178C36.408 26.2537 37.3326 24.0824 38.9786 22.4814C40.6246 20.8805 42.8571 19.9812 45.1849 19.9812ZM45.185 23.0855C43.7036 23.0855 42.283 23.6578 41.2355 24.6765C40.1881 25.6953 39.5996 27.0771 39.5997 28.5179C39.5997 29.9586 40.1882 31.3404 41.2357 32.3592C42.2831 33.378 43.7038 33.9504 45.1852 33.9505C46.6665 33.9505 48.0872 33.3782 49.1346 32.3594C50.1821 31.3406 50.7705 29.9589 50.7705 28.5181C50.7704 27.0773 50.182 25.6955 49.1345 24.6767C48.087 23.6579 46.6663 23.0855 45.185 23.0855ZM67.5271 51.0244C67.5277 52.9159 67.0206 54.7746 66.0559 56.4169C65.0913 58.0592 63.7026 59.4281 62.0271 60.3882C60.3517 61.3483 58.4475 61.8663 56.503 61.8911C54.5585 61.9159 52.6411 61.4465 50.9403 60.5294L46.4975 61.8424C46.3214 61.8947 46.134 61.8994 45.9554 61.8561C45.7768 61.8127 45.6136 61.7229 45.4834 61.5963C45.3532 61.4697 45.2609 61.311 45.2163 61.1373C45.1718 60.9635 45.1766 60.7813 45.2304 60.61L46.5836 56.292C45.7578 54.8413 45.2843 53.2262 45.1994 51.5701C45.1145 49.9141 45.4204 48.2611 46.0937 46.7378C46.767 45.2145 47.7898 43.8614 49.0839 42.782C50.3779 41.7025 51.9088 40.9255 53.5592 40.5104C55.2097 40.0953 56.936 40.0531 58.6058 40.3871C60.2757 40.721 61.8448 41.4223 63.193 42.4371C64.5413 43.452 65.6328 44.7535 66.384 46.2419C67.1353 47.7304 67.5263 49.3663 67.5271 51.0244ZM53.1646 46.3677C52.7413 46.3677 52.3354 46.5312 52.0361 46.8223C51.7369 47.1134 51.5688 47.5082 51.5688 47.9198C51.5688 48.3315 51.7369 48.7263 52.0362 49.0174C52.3355 49.3085 52.7414 49.472 53.1646 49.472L59.5479 49.4721C59.9712 49.4721 60.3771 49.3086 60.6764 49.0175C60.9756 48.7265 61.1438 48.3317 61.1437 47.92C61.1437 47.5084 60.9756 47.1136 60.6763 46.8225C60.377 46.5314 59.9711 46.3679 59.5479 46.3679L53.1646 46.3677ZM51.5689 54.1284C51.5689 54.54 51.737 54.9348 52.0363 55.2259C52.3356 55.517 52.7415 55.6805 53.1647 55.6806L56.3564 55.6806C56.7796 55.6806 57.1856 55.5171 57.4848 55.226C57.7841 54.935 57.9522 54.5402 57.9522 54.1285C57.9522 53.7169 57.7841 53.3221 57.4848 53.031C57.1855 52.7399 56.7796 52.5764 56.3563 52.5763L53.1647 52.5763C52.7414 52.5763 52.3355 52.7398 52.0363 53.0309C51.737 53.3219 51.5689 53.7167 51.5689 54.1284Z" fill="black"/>
<defs>
<filter id="filter0_f_1_353" x="-9.54032e-07" y="-3.14831e-05" width="96" height="99.2661" filterUnits="userSpaceOnUse" color-interpolation-filters="sRGB">
<feFlood flood-opacity="0" result="BackgroundImageFix"/>
<feBlend mode="normal" in="SourceGraphic" in2="BackgroundImageFix" result="shape"/>
<feGaussianBlur stdDeviation="7.76125" result="effect1_foregroundBlur_1_353"/>
</filter>
</defs>
</svg>
